<?xml version="1.0" encoding="UTF-8" standalone="no"?>
<svg
   xmlns:dc="http://purl.org/dc/elements/1.1/"
   xmlns:cc="http://creativecommons.org/ns#"
   xmlns:rdf="http://www.w3.org/1999/02/22-rdf-syntax-ns#"
   xmlns:svg="http://www.w3.org/2000/svg"
   xmlns="http://www.w3.org/2000/svg"
   xml:space="preserve"
   style="enable-background:new 0 0 1807.79 1277.58;"
   viewBox="0 0 1807.79 1277.58"
   y="0px"
   x="0px"
   id="Ebene_1"
   version="1.1"><metadata
   id="metadata126"><rdf:RDF><cc:Work
       rdf:about=""><dc:format>image/svg+xml</dc:format><dc:type
         rdf:resource="http://purl.org/dc/dcmitype/StillImage" /><dc:title></dc:title></cc:Work></rdf:RDF></metadata><defs
   id="defs124">
	
	
	
	
	
</defs>
<style
   id="style2"
   type="text/css">
	.st0{display:none;}
	.st1{display:inline;fill:#07272B;}
	.st2{fill:#07272B;}
	.st3{fill:none;}
	.st4{enable-background:new    ;}
</style>
<g
   id="Ebene_270"
   class="st0"
   style="display:none">
		<rect
   x="0.2"
   y="0"
   class="st1"
   width="1807.75"
   height="1278"
   id="rect4"
   style="display:inline;fill:#07272b" />
	</g><polygon
   class="st2"
   points="507.86,1163.18 461.9,1172.22 443.3,1215.21 420.49,1174.29 373.86,1169.88 405.73,1135.55 395.51,1089.84 438.01,1109.54 478.33,1085.69 472.73,1132.2 "
   id="polygon7"
   style="fill:#ffffff" /><polygon
   class="st2"
   points="1502.73,268.59 1587.27,289.72 1608.4,374.26 1629.54,289.72 1714.08,268.59 1629.54,247.45 1608.4,162.91 1587.27,247.45 "
   id="polygon9"
   style="fill:#ffffff" /><polygon
   class="st2"
   points="196.02,395.53 242.51,407.15 254.14,453.65 265.76,407.15 312.26,395.53 265.76,383.9 254.14,337.41 242.51,383.9 "
   id="polygon11"
   style="fill:#ffffff" /><g
   id="Tales_1_">
		<rect
   x="94.300003"
   y="198.57001"
   class="st3"
   width="1550.16"
   height="671.44"
   id="rect13"
   style="fill:none" />
		<g
   class="st4"
   id="g25"
   style="enable-background:new">
			<path
   class="st2"
   d="m 500.09,170.08 c 6.93,4.35 12.78,9.75 17.56,16.26 4.75,6.5 7.15,13.66 7.15,21.46 -2.6,16.48 -5.43,30.79 -8.45,42.92 -3.05,12.15 -6.08,23.63 -9.1,34.47 -3.05,10.85 -6.5,22.11 -10.4,33.82 -3.9,11.71 -8.03,25.36 -12.36,40.97 -4.35,17.36 -9.33,37.29 -14.96,59.83 -5.65,22.56 -11.06,45.97 -16.26,70.23 -5.2,24.28 -9.98,48.12 -14.31,71.53 -4.35,23.41 -7.38,43.79 -9.1,61.13 -1.75,25.16 -3.25,48.12 -4.55,68.93 -1.3,20.81 0.2,41.62 4.55,62.43 v 6.5 c 0,4.33 -2.17,6.5 -6.5,6.5 -15.61,-0.87 -32.52,-3.7 -50.72,-8.45 -18.21,-4.78 -31.21,-12.8 -39.02,-24.06 -3.48,-4.35 -5.43,-10.2 -5.85,-17.56 -0.45,-7.36 -0.45,-15.16 0,-23.41 0.43,-8.23 1.3,-16.68 2.6,-25.36 1.3,-8.66 2.38,-16.03 3.25,-22.11 0.85,-16.46 3.03,-35.32 6.5,-56.58 3.45,-21.24 7.15,-42.92 11.06,-65.03 3.9,-22.11 8.23,-43.57 13.01,-64.38 4.76,-20.81 8.88,-39.02 12.36,-54.63 6.06,-23.41 11.71,-44.42 16.91,-63.08 5.2,-18.63 10.4,-37.07 15.61,-55.28 5.2,-18.21 9.96,-36.84 14.31,-55.93 4.33,-19.06 8.66,-40.32 13.01,-63.73 -8.68,-0.85 -17.35,-1.3 -26.01,-1.3 -8.68,0 -17.78,0 -27.31,0 -39.02,-0.85 -72.83,2.83 -101.45,11.06 -28.61,8.25 -52.02,18.21 -70.23,29.91 -18.21,11.71 -31.21,24.28 -39.02,37.72 -7.8,13.45 -10.4,25.36 -7.8,35.77 3.45,10.4 8.66,19.08 15.61,26.01 6.93,6.95 13.86,12.36 20.81,16.26 6.93,3.9 13.43,6.5 19.51,7.8 6.06,1.3 9.96,1.95 11.71,1.95 l -9.1,18.21 c -14.75,0 -28.19,-1.3 -40.32,-3.9 -10.4,-1.73 -20.81,-4.76 -31.21,-9.1 -10.41,-4.33 -18.21,-10.83 -23.41,-19.51 -9.55,-17.33 -16.91,-40.1 -22.11,-68.28 -5.2,-28.17 -6.95,-53.98 -5.2,-77.39 2.6,-30.34 19.29,-53.53 50.07,-69.58 30.77,-16.03 70.66,-26.22 119.66,-30.56 48.98,-4.33 104.25,-3.68 165.83,1.95 61.56,5.65 123.98,15.4 187.29,29.26 62.43,13.88 113.58,22.33 153.47,25.36 39.87,3.05 71.09,3.05 93.64,0 22.54,-3.03 38.37,-8.45 47.47,-16.26 9.1,-7.81 14.08,-15.61 14.96,-23.41 0.85,-2.6 2.15,-5.2 3.9,-7.8 3.45,-5.2 8.23,-5.63 14.31,-1.3 6.93,5.2 12.78,13.23 17.56,24.06 4.76,10.85 7.58,22.33 8.45,34.47 0,6.08 -1.1,13.23 -3.25,21.46 -2.17,8.25 -8.03,15.83 -17.56,22.76 -9.55,6.95 -23.86,12.8 -42.92,17.56 -19.08,4.78 -45.52,6.3 -79.34,4.55 -24.28,-0.85 -46.82,-2.6 -67.63,-5.2 -20.81,-2.6 -41.84,-5.41 -63.08,-8.45 -21.26,-3.03 -43.79,-6.06 -67.63,-9.1 -23.86,-3.03 -51.37,-5.85 -82.59,-8.45 -8.68,-0.85 -17.35,-1.5 -26.01,-1.95 -8.73,-0.44 -17.84,-1.1 -27.37,-1.97 z"
   id="path15"
   style="fill:#ffffff" />
			<path
   class="st2"
   d="m 852.54,517.34 c 6.93,4.35 12.13,8.45 15.61,12.36 3.45,3.9 6.06,8.03 7.8,12.36 2.6,4.35 4.33,8.68 5.2,13.01 -4.35,32.09 -12.36,58.75 -24.06,79.99 -11.71,21.26 -23.63,37.94 -35.77,50.07 -14.75,14.75 -29.91,26.01 -45.52,33.82 -29.49,-6.93 -53.98,-16.26 -73.48,-27.96 -19.51,-11.71 -30.56,-25.79 -33.17,-42.27 -1.75,-7.8 -2.6,-16.46 -2.6,-26.01 0,-9.53 0.43,-19.06 1.3,-28.61 -5.2,13.88 -10.2,27.76 -14.96,41.62 -4.78,13.88 -9.33,26.24 -13.66,37.07 -4.35,10.85 -8.25,19.96 -11.71,27.31 -3.47,7.38 -6.08,11.93 -7.8,13.66 -19.08,3.47 -36.42,4.33 -52.02,2.6 -13.88,-1.73 -27.76,-5.63 -41.62,-11.71 -13.88,-6.06 -24.26,-17.76 -31.21,-35.12 -1.73,-10.4 -2.6,-21.66 -2.6,-33.82 0,-10.41 0.22,-22.96 0.65,-37.72 0.45,-14.73 1.95,-30.77 4.55,-48.12 3.48,-23.41 8.88,-47.68 16.26,-72.83 7.36,-25.14 16.26,-48.12 26.66,-68.93 10.41,-20.81 22.31,-37.92 35.77,-51.37 13.43,-13.43 28.82,-20.59 46.17,-21.46 11.26,-0.85 22.54,0 33.82,2.6 9.53,1.75 20.36,4.78 32.52,9.1 12.13,4.35 23.84,11.28 35.12,20.81 0,0.87 0.43,1.75 1.3,2.6 v 3.9 c -1.75,1.75 -3.05,2.6 -3.9,2.6 h -2.6 c -7.8,0 -17.13,1.1 -27.96,3.25 -10.85,2.17 -21.03,8.03 -30.56,17.56 -13.01,13.01 -24.71,30.79 -35.12,53.33 -10.41,22.56 -18.86,46.62 -25.36,72.18 -6.5,25.59 -10.63,51.37 -12.36,77.39 -1.75,26.01 -0.87,49.87 2.6,71.53 12.13,-16.46 24.26,-35.97 36.42,-58.53 10.41,-19.94 22.11,-44.65 35.12,-74.13 13.01,-29.47 25.56,-64.58 37.72,-105.35 1.73,-7.8 3.45,-14.51 5.2,-20.16 1.73,-5.63 3.03,-10.61 3.9,-14.96 0.85,-0.85 1.73,-2.15 2.6,-3.9 2.6,-2.6 5.63,-3.45 9.1,-2.6 24.26,6.95 41.4,14.1 51.37,21.46 9.96,7.38 16.68,13.66 20.16,18.86 0,1.75 0.43,3.48 1.3,5.2 0,1.75 0.2,3.47 0.65,5.2 0.43,1.75 0.2,3.9 -0.65,6.5 -12.15,40.77 -20.81,75.66 -26.01,104.7 -5.2,29.06 -8.68,53.55 -10.4,73.48 -2.6,22.56 -3.05,41.62 -1.3,57.23 22.54,-9.53 40.32,-23.84 53.33,-42.92 13.01,-19.06 22.96,-37.72 29.91,-55.93 7.79,-21.67 12.55,-44.65 14.29,-68.94 z"
   id="path17"
   style="fill:#ffffff" />
			<path
   class="st2"
   d="m 1019.01,517.34 c 12.13,6.95 20.36,15.18 24.71,24.71 2.6,4.35 4.33,8.68 5.2,13.01 -5.2,32.09 -13.66,58.75 -25.36,79.99 -11.71,21.26 -23.63,37.94 -35.77,50.07 -14.75,14.75 -29.91,26.01 -45.52,33.82 -28.61,-6.93 -52.67,-16.26 -72.18,-27.96 -19.51,-11.71 -30.56,-25.79 -33.17,-42.27 -1.73,-12.13 -1.95,-27.52 -0.65,-46.17 1.3,-18.63 3.48,-38.37 6.5,-59.18 3.05,-20.81 6.93,-42.05 11.71,-63.73 4.76,-21.66 9.31,-41.62 13.66,-59.83 9.53,-39.02 18.64,-75.44 27.31,-109.25 8.66,-33.82 16.03,-60.68 22.11,-80.64 2.6,-8.66 2.8,-14.08 0.65,-16.26 -2.17,-2.15 -2.4,-5.41 -0.65,-9.75 0.85,-3.45 3.9,-5.2 9.1,-5.2 1.73,0 2.8,0.22 3.25,0.65 0.43,0.45 1.5,0.65 3.25,0.65 0.85,0 1.73,0.45 2.6,1.3 7.8,2.6 18.64,6.95 32.52,13.01 13.86,6.08 26.44,13.88 37.72,23.41 1.73,0.87 3.03,2.17 3.9,3.9 1.73,4.35 2.15,9.1 1.3,14.31 -4.35,13.01 -11.5,36.86 -21.46,71.53 -9.98,34.69 -20.61,73.28 -31.87,115.75 -8.68,34.69 -15.4,66.55 -20.16,95.59 -4.78,29.06 -8.03,54.42 -9.75,76.09 -3.47,25.16 -5.2,48.57 -5.2,70.23 22.54,-9.53 40.1,-23.84 52.67,-42.92 12.56,-19.06 22.31,-37.72 29.26,-55.93 7.82,-21.66 12.58,-44.64 14.32,-68.93 z"
   id="path19"
   style="fill:#ffffff" />
			<path
   class="st2"
   d="m 1329.85,562.87 c -12.15,44.22 -29.71,77.18 -52.67,98.85 -22.98,21.68 -46.62,36.86 -70.88,45.52 -20.81,6.95 -40.54,10.41 -59.18,10.41 -18.66,0 -32.74,-0.85 -42.27,-2.6 -23.41,-4.33 -42.07,-12.36 -55.93,-24.06 -13.88,-11.71 -24.06,-25.36 -30.56,-40.97 -6.5,-15.61 -10.4,-31.87 -11.71,-48.77 -1.3,-16.91 -1.08,-33.17 0.65,-48.77 1.75,-18.21 4.78,-34.89 9.1,-50.07 4.33,-15.16 8.66,-27.52 13.01,-37.07 7.8,-18.21 16.46,-35.32 26.01,-51.37 9.53,-16.03 19.94,-30.12 31.21,-42.27 11.26,-12.13 22.76,-21.66 34.47,-28.61 11.71,-6.93 24.06,-9.96 37.07,-9.1 11.26,1.75 22.54,4.35 33.82,7.8 9.53,3.47 19.94,8.25 31.21,14.31 11.26,6.08 21.66,14.75 31.21,26.01 0.85,0.87 3.25,3.9 7.15,9.1 3.9,5.2 6.71,12.58 8.45,22.11 1.73,9.55 1.08,20.81 -1.95,33.82 -3.05,13.01 -10.85,27.31 -23.41,42.92 -12.58,15.61 -31.21,32.74 -55.93,51.37 -24.71,18.66 -57.88,37.94 -99.5,57.88 -1.75,13.01 -2.4,24.29 -1.95,33.82 0.43,9.55 1.5,17.78 3.25,24.71 1.73,7.8 3.45,13.88 5.2,18.21 3.45,5.2 9.53,8.9 18.21,11.05 8.66,2.17 18.21,2.83 28.61,1.95 10.41,-0.85 20.59,-2.38 30.56,-4.55 9.96,-2.15 18.41,-4.55 25.36,-7.15 17.33,-6.93 31.87,-16.46 43.57,-28.61 11.71,-12.13 21.46,-24.71 29.26,-37.72 7.8,-13.01 13.66,-25.36 17.56,-37.07 3.9,-11.71 6.71,-21.01 8.45,-27.96 0.85,-4.33 1.73,-8.23 2.6,-11.71 0.85,-3.46 1.3,-6.5 1.3,-9.1 v -7.8 c 12.13,6.95 20.36,15.18 24.71,24.71 2.6,4.35 4.33,8.68 5.2,13.01 0,3.47 -0.45,5.65 -1.3,6.5 v 1.27 z m -214.6,-57.23 c -3.47,8.68 -6.5,16.91 -9.1,24.71 -2.6,7.8 -5.2,15.18 -7.8,22.11 13.86,-8.66 30.56,-19.71 50.07,-33.17 19.51,-13.43 37.07,-27.52 52.67,-42.27 15.61,-14.73 26.44,-29.91 32.51,-45.52 6.06,-15.61 3.46,-29.47 -7.8,-41.62 v -1.3 c -6.95,0.87 -13.45,2.17 -19.51,3.9 -6.08,1.75 -12.58,5.2 -19.51,10.4 -13.88,9.55 -26.89,23.41 -39.02,41.62 -12.15,18.22 -22.98,38.6 -32.51,61.14 z"
   id="path21"
   style="fill:#ffffff" />
			<path
   class="st2"
   d="m 1554.84,570.67 c -6.08,20.81 -14.1,40.54 -24.06,59.18 -9.98,18.66 -23.21,35.12 -39.67,49.42 -16.48,14.31 -36.21,25.36 -59.18,33.17 -22.98,7.8 -50.07,11.26 -81.29,10.4 -24.28,-0.87 -43.14,-5.85 -56.58,-14.96 -13.43,-9.1 -22.54,-20.81 -27.31,-35.12 -4.76,-14.31 -6.06,-30.99 -3.9,-50.07 2.17,-19.06 6.73,-39.02 13.66,-59.83 0.87,-0.85 1.3,-2.15 1.3,-3.9 l 14.31,-33.82 c 1.75,-4.33 2.4,-7.36 1.95,-9.1 -0.43,-1.73 0.22,-4.75 1.95,-9.1 0.85,-1.73 3.45,-2.6 7.8,-2.6 l 1.3,1.3 h 5.2 l 2.6,2.6 h 1.3 c 6.93,4.35 18.21,10.63 33.82,18.86 15.61,8.25 27.31,18 35.12,29.26 v 1.3 c 0.85,0 1.73,1.3 2.6,3.9 0.85,2.6 0.43,5.65 -1.3,9.1 0,1.75 -0.45,3.05 -1.3,3.9 l -1.3,2.6 c -3.47,5.2 -5.2,8.25 -5.2,9.1 l -5.2,6.5 c -5.2,11.28 -9.75,22.76 -13.66,34.47 -3.9,11.71 -6.5,22.33 -7.8,31.87 -1.3,9.55 -0.87,17.35 1.3,23.41 2.15,6.08 6.28,9.1 12.36,9.1 18.21,0 34.02,-4.55 47.47,-13.66 13.43,-9.1 24.92,-20.59 34.47,-34.47 9.53,-13.86 17.33,-28.61 23.41,-44.22 6.06,-15.61 10.83,-29.91 14.31,-42.92 5.2,-21.66 3.45,-37.49 -5.2,-47.47 -8.68,-9.96 -21.03,-16.91 -37.07,-20.81 -16.05,-3.9 -34.91,-5.41 -56.58,-4.55 -21.68,0.87 -43.37,1.3 -65.03,1.3 -3.48,0 -5.2,-1.73 -5.2,-5.2 l 2.6,-1.3 c 2.6,-13.86 3.68,-26.87 3.25,-39.02 -0.45,-12.13 -1.52,-22.11 -3.25,-29.91 -0.87,-1.73 -0.22,-3.46 1.95,-5.2 2.15,-1.73 3.25,-3.03 3.25,-3.9 24.26,-22.54 52.45,-40.1 84.54,-52.67 32.07,-12.56 65.46,-21.46 100.15,-26.66 17.33,0.87 32.07,11.71 44.22,32.52 1.73,6.08 2.6,12.58 2.6,19.51 0,6.08 -1.3,12.58 -3.9,19.51 -2.6,6.95 -7.8,14.31 -15.61,22.11 l -5.2,2.6 c -4.35,1.75 -8.25,2.17 -11.71,1.3 -0.87,0 -1.3,-1.73 -1.3,-5.2 0,-1.73 0.43,-3.46 1.3,-5.2 0,-1.73 -2.4,-4.76 -7.15,-9.1 -4.78,-4.33 -12.15,-7.8 -22.11,-10.41 -9.98,-2.6 -22.98,-2.6 -39.02,0 -16.05,2.6 -35.34,10.41 -57.88,23.41 15.61,0 34.24,3.05 55.93,9.1 21.66,6.08 41.62,15.4 59.83,27.96 18.21,12.58 32.52,28.84 42.92,48.77 10.4,19.96 12.12,44.23 5.19,72.84 z"
   id="path23"
   style="fill:#ffffff" />
		</g>
		<rect
   x="133.32001"
   y="859.44"
   class="st3"
   width="1468.88"
   height="211.35001"
   id="rect27"
   style="fill:none" />
		<g
   class="st4"
   id="g31"
   style="fill:#ffffff;enable-background:new">
			<path
   class="st2"
   d="m 141.24,921.57 c 0,-12.52 2.85,-36.77 16.64,-43.43 7.93,-3.8 28.53,-2.22 28.53,10.46 0,1.9 -0.79,3.96 -3.49,3.96 -5.71,0 -7.77,-8.56 -15.85,-8.56 h -0.63 c -14.74,0.79 -17.28,22.98 -17.28,34.87 v 3.17 c 0.79,15.85 0.79,27.58 4.12,42.48 1.58,7.45 5.86,15.38 15.06,15.38 h 0.79 c 14.42,-0.79 14.9,-19.66 14.42,-28.69 l -1.27,-23.46 c -4.6,0 -9.19,1.27 -14.27,0.79 -1.43,-0.95 -1.9,-4.91 -1.9,-5.07 0,-4.75 10.94,-3.8 21.24,-3.96 4.76,1.27 4.12,9.19 4.6,19.02 v 1.58 c 0.95,17.28 2.38,46.6 -20.61,47.71 -1.11,0 -2.06,0.16 -3.17,0 -21.38,1.28 -26.93,-24.87 -26.93,-66.25 z"
   id="path29"
   style="fill:#ffffff" />
		</g>
		<g
   class="st4"
   id="g35"
   style="fill:#ffffff;enable-background:new">
			<path
   class="st2"
   d="m 208.29,875.61 c 0,-2.85 2.69,-5.55 5.55,-5.55 h 25.04 c 0.95,0 4.12,2.38 4.28,3.17 0.16,0.32 0.16,0.48 0.16,0.79 0,3.17 -4.28,4.6 -6.82,4.6 h -19.02 l 0.79,52.62 17.12,-2.54 h 0.79 c 7.45,0 4.6,7.29 -1.74,8.24 l -15.85,2.38 -0.48,41.37 c 1.43,0.16 6.82,0.16 8.24,0.16 10.62,0 18.39,-3.65 18.86,3.65 0.32,5.39 -35.19,4.75 -35.19,1.74 z"
   id="path33"
   style="fill:#ffffff" />
		</g>
		<g
   class="st4"
   id="g39"
   style="fill:#ffffff;enable-background:new">
			<path
   class="st2"
   d="m 262.19,960.89 c 6.34,1.9 0.32,15.85 8.24,20.45 h 0.95 c 8.88,0 11.41,-12.21 11.41,-18.7 0,-8.72 -0.63,-18.07 -4.28,-26.31 -7.45,-17.12 -23.46,-31.38 -23.46,-51.04 0,-8.88 5.39,-23.62 16.33,-23.62 6.97,0 18.55,5.55 18.55,13.79 0,3.01 -0.95,4.75 -4.12,4.75 -6.18,0 -4.28,-9.51 -13,-9.51 -8.08,0 -8.72,11.25 -8.72,16.8 0,16.01 13.47,27.26 20.61,40.58 6.5,12.21 9.83,29.96 6.02,42 -2.54,8.24 -9.67,19.5 -19.34,19.5 -11.73,0 -15.38,-14.58 -15.38,-24.09 0,-2.7 3.65,-5.4 6.19,-4.6 z"
   id="path37"
   style="fill:#ffffff" />
		</g>
		<g
   class="st4"
   id="g43"
   style="fill:#ffffff;enable-background:new">
			<path
   class="st2"
   d="m 347.63,870.85 c 0,5.55 -9.19,4.44 -11.41,4.44 h -0.95 c -15.38,0 -22.19,31.86 -22.19,49.77 0,20.29 1.27,34.71 15.22,46.29 6.82,5.71 17.28,-0.16 19.66,4.12 3.17,5.55 -2.69,7.45 -7.77,7.45 -35.98,-0.79 -41.53,-48.5 -34.24,-79.41 3.8,-16.49 13.63,-38.52 34.24,-38.52 3.31,0 7.44,2.22 7.44,5.86 z"
   id="path41"
   style="fill:#ffffff" />
		</g>
		<g
   class="st4"
   id="g47"
   style="fill:#ffffff;enable-background:new">
			<path
   class="st2"
   d="m 369.98,941.23 v 44.7 c 0,7.13 -8.72,4.44 -9.04,2.38 0,-5.71 0.32,-32.02 0.32,-37.57 0,-12.36 1.11,-76.24 1.27,-88.45 1.27,-1.27 2.69,-1.27 4.44,-1.27 2.22,0 3.49,1.43 4.91,3.33 0,15.22 -1.43,36.93 -1.43,53.1 0,2.22 0,12.36 0.16,14.42 1.27,1.43 2.38,1.11 3.8,1.11 6.02,0 12.05,0 17.91,0.32 1.27,-17.91 1.9,-48.82 1.43,-68.95 v -0.79 c 0,-2.38 1.9,-3.49 4.12,-3.49 1.9,0 4.12,1.58 5.23,3.17 0,3.49 -0.48,13.63 -0.63,16.96 -2.22,72.75 1.74,109.53 -3.49,109.69 -5.55,0.16 -5.55,-6.66 -5.55,-17.28 0,-2.85 -0.79,-28.53 -0.79,-31.38 z"
   id="path45"
   style="fill:#ffffff" />
		</g>
		<g
   class="st4"
   id="g51"
   style="fill:#ffffff;enable-background:new">
			<path
   class="st2"
   d="m 423.23,870.69 c 1.11,-3.17 1.9,-3.33 5.23,-3.33 4.6,0 4.6,2.06 4.6,6.66 0,0.48 -0.16,2.54 -0.16,2.85 l -4.75,108.42 c -0.32,6.97 -9.19,7.61 -9.19,3.01 z"
   id="path49"
   style="fill:#ffffff" />
		</g>
		<g
   class="st4"
   id="g55"
   style="fill:#ffffff;enable-background:new">
			<path
   class="st2"
   d="m 487.12,870.85 c 0,5.55 -9.19,4.44 -11.41,4.44 h -0.95 c -15.38,0 -22.19,31.86 -22.19,49.77 0,20.29 1.27,34.71 15.22,46.29 6.82,5.71 17.28,-0.16 19.66,4.12 3.17,5.55 -2.69,7.45 -7.77,7.45 -35.98,-0.79 -41.53,-48.5 -34.24,-79.41 3.8,-16.49 13.63,-38.52 34.24,-38.52 3.31,0 7.44,2.22 7.44,5.86 z"
   id="path53"
   style="fill:#ffffff" />
		</g>
		<g
   class="st4"
   id="g59"
   style="fill:#ffffff;enable-background:new">
			<path
   class="st2"
   d="m 509.47,941.23 v 44.7 c 0,7.13 -8.72,4.44 -9.04,2.38 0,-5.71 0.32,-32.02 0.32,-37.57 0,-12.36 1.11,-76.24 1.27,-88.45 1.27,-1.27 2.69,-1.27 4.44,-1.27 2.22,0 3.49,1.43 4.91,3.33 0,15.22 -1.43,36.93 -1.43,53.1 0,2.22 0,12.36 0.16,14.42 1.27,1.43 2.38,1.11 3.8,1.11 6.02,0 12.05,0 17.91,0.32 1.27,-17.91 1.9,-48.82 1.43,-68.95 v -0.79 c 0,-2.38 1.9,-3.49 4.12,-3.49 1.9,0 4.12,1.58 5.23,3.17 0,3.49 -0.48,13.63 -0.63,16.96 -2.22,72.75 1.74,109.53 -3.49,109.69 -5.55,0.16 -5.55,-6.66 -5.55,-17.28 0,-2.85 -0.79,-28.53 -0.79,-31.38 z"
   id="path57"
   style="fill:#ffffff" />
		</g>
		<g
   class="st4"
   id="g63"
   style="fill:#ffffff;enable-background:new">
			<path
   class="st2"
   d="m 573.03,873.23 c -9.83,0.63 -14.27,0.48 -14.58,-2.22 0.32,-5.39 0.32,-7.29 16.8,-6.34 h 13.31 c 3.49,0.16 9.35,0.63 9.35,5.23 0,1.43 -1.74,3.01 -3.17,3.01 h -13.31 l 3.01,100.65 c 0,1.43 -3.17,2.22 -4.12,2.22 -0.95,0 -4.12,-0.79 -4.12,-2.22 z"
   id="path61"
   style="fill:#ffffff" />
		</g>
		<g
   class="st4"
   id="g77"
   style="fill:#ffffff;enable-background:new">
			<path
   class="st2"
   d="m 605.05,875.61 c 0,-2.85 2.7,-5.55 5.55,-5.55 h 25.04 c 0.95,0 4.12,2.38 4.28,3.17 0.16,0.32 0.16,0.48 0.16,0.79 0,3.17 -4.28,4.6 -6.82,4.6 h -19.02 l 0.79,52.62 17.12,-2.54 h 0.79 c 7.45,0 4.6,7.29 -1.74,8.24 l -15.85,2.38 -0.48,41.37 c 1.43,0.16 6.82,0.16 8.24,0.16 10.62,0 18.39,-3.65 18.86,3.65 0.32,5.39 -35.19,4.75 -35.19,1.74 z"
   id="path65"
   style="fill:#ffffff" />
			<path
   class="st2"
   d="m 659.9,874.66 c -0.32,-6.34 8.4,-10.14 11.73,-0.95 l 32.34,87.66 c 0.16,-6.97 1.43,-45.97 2.38,-61.5 0.48,-9.51 -0.16,-19.18 1.9,-28.06 0,-1.74 1.74,-1.74 4.12,-1.74 3.8,0.16 4.12,0.32 3.96,3.8 -0.48,16.49 -2.85,32.97 -3.49,49.46 -0.32,9.19 -1.9,53.1 -1.9,62.29 -1.11,3.33 -6.02,1.43 -7.29,-1.27 -1.58,-3.33 -2.85,-6.5 -36.46,-96.37 l -1.11,97.32 c 0,4.76 -8.08,4.28 -8.08,0.95 z"
   id="path67"
   style="fill:#ffffff" />
			<path
   class="st2"
   d="m 736.3,982.28 c 3.33,0 5.87,2.06 5.87,5.39 0,4.91 -1.9,9.99 -3.17,14.42 -0.32,1.58 -1.11,2.22 -2.54,2.22 -2.54,0 -2.38,-1.74 -2.54,-3.65 -0.16,-3.8 -1.59,-9.99 -1.59,-14.42 0.01,-2.69 1.12,-3.96 3.97,-3.96 z"
   id="path69"
   style="fill:#ffffff" />
			<path
   class="st2"
   d="m 805.57,959.14 c 0.16,-13.63 0.16,-77.04 0,-90.51 V 868 c 0,-3.49 1.27,-7.13 4.6,-8.56 h 1.43 c 6.34,0 13,1.43 17.75,5.71 16.96,15.22 20.13,42.48 19.18,64.04 -1.27,30.59 -8.4,59.76 -34.55,62.93 -5.07,0.63 -8.4,-0.16 -8.4,-6.02 v -26.96 z m 9.03,-30.59 c 0,14.11 -0.32,38.2 0,54.37 19.66,-3.01 25.04,-34.4 25.04,-51.83 0,-12.52 -0.79,-61.5 -22.83,-61.5 h -1.11 c -0.31,8.87 -1.1,50.24 -1.1,58.96 z"
   id="path71"
   style="fill:#ffffff" />
			<path
   class="st2"
   d="m 868.81,870.69 c 1.11,-3.17 1.9,-3.33 5.23,-3.33 4.6,0 4.6,2.06 4.6,6.66 0,0.48 -0.16,2.54 -0.16,2.85 l -4.75,108.42 c -0.32,6.97 -9.19,7.61 -9.19,3.01 z"
   id="path73"
   style="fill:#ffffff" />
			<path
   class="st2"
   d="m 894.49,875.61 c 0,-2.85 2.69,-5.55 5.55,-5.55 h 25.04 c 0.95,0 4.12,2.38 4.28,3.17 0.16,0.32 0.16,0.48 0.16,0.79 0,3.17 -4.28,4.6 -6.82,4.6 h -19.02 l 0.79,52.62 17.12,-2.54 h 0.79 c 7.45,0 4.6,7.29 -1.74,8.24 l -15.85,2.38 -0.48,41.37 c 1.43,0.16 6.82,0.16 8.24,0.16 10.62,0 18.39,-3.65 18.86,3.65 0.32,5.39 -35.19,4.75 -35.19,1.74 z"
   id="path75"
   style="fill:#ffffff" />
		</g>
		<g
   class="st4"
   id="g81"
   style="fill:#ffffff;enable-background:new">
			<path
   class="st2"
   d="m 1028.59,879.1 c 0,8.24 -3.17,15.69 -8.56,21.72 18.07,11.25 25.2,24.73 25.2,45.97 0,22.67 -12.52,42 -37.41,42 -1.11,0 -4.28,-0.16 -5.55,-2.38 -1.74,-24.41 -1.74,-48.66 -4.12,-77.35 l -3.17,-37.73 V 868 c 10.31,-11.73 33.61,-8.4 33.61,11.1 z m -22.04,18.54 c 8.08,0 13.47,-9.19 13.47,-17.91 0,-9.04 -7.45,-12.21 -15.85,-8.24 z m 6.98,81.63 c 16.8,0 22.35,-17.28 22.35,-32.49 0,-17.59 -8.08,-38.99 -28.85,-38.99 0,23.93 1.74,47.55 3.65,71.33 0.95,0.15 1.9,0.15 2.85,0.15 z"
   id="path79"
   style="fill:#ffffff" />
		</g>
		<g
   class="st4"
   id="g85"
   style="fill:#ffffff;enable-background:new">
			<path
   class="st2"
   d="m 1052.36,875.61 c 0,-2.85 2.69,-5.55 5.55,-5.55 h 25.04 c 0.95,0 4.12,2.38 4.28,3.17 0.16,0.32 0.16,0.48 0.16,0.79 0,3.17 -4.28,4.6 -6.82,4.6 h -19.02 l 0.79,52.62 17.12,-2.54 h 0.79 c 7.45,0 4.6,7.29 -1.74,8.24 l -15.85,2.38 -0.48,41.37 c 1.43,0.16 6.82,0.16 8.24,0.16 10.62,0 18.39,-3.65 18.86,3.65 0.32,5.39 -35.19,4.75 -35.19,1.74 z"
   id="path83"
   style="fill:#ffffff" />
		</g>
		<g
   class="st4"
   id="g91"
   style="fill:#ffffff;enable-background:new">
			<path
   class="st2"
   d="m 1095.64,927.76 c 0,-19.81 2.38,-60.39 29.01,-61.82 l 1.27,-0.16 c 6.18,0 17.59,3.96 17.59,9.99 0,0.63 -0.16,1.27 -0.48,2.06 -3.17,7.61 -8.56,-3.49 -17.75,-4.75 h -0.79 c -14.58,1.9 -19.81,21.4 -19.81,47.87 v 3.49 l 0.32,17.28 c 0.63,10.62 3.96,35.82 18.23,35.82 h 0.63 c 10.46,-0.63 12.05,-22.03 12.52,-29.48 0.63,-5.39 1.43,-10.94 1.11,-16.8 -0.48,-9.99 -18.07,0.79 -18.55,-7.61 0,-3.65 4.44,-4.44 7.13,-4.44 l 2.85,-0.16 c 3.8,-0.16 17.44,-0.48 17.44,6.02 v 3.01 c -0.16,4.91 -1.43,22.51 -1.74,25.04 -1.43,13.95 -4.6,31.54 -21.56,32.33 h -1.27 c -24.25,0 -26,-38.52 -26.15,-55.48 z"
   id="path87"
   style="fill:#ffffff" />
			<path
   class="st2"
   d="m 1162.21,875.61 c 0,-2.85 2.7,-5.55 5.55,-5.55 h 25.04 c 0.95,0 4.12,2.38 4.28,3.17 0.16,0.32 0.16,0.48 0.16,0.79 0,3.17 -4.28,4.6 -6.82,4.6 h -19.02 l 0.79,52.62 17.12,-2.54 h 0.79 c 7.45,0 4.6,7.29 -1.74,8.24 l -15.85,2.38 -0.48,41.37 c 1.43,0.16 6.82,0.16 8.24,0.16 10.62,0 18.39,-3.65 18.86,3.65 0.32,5.39 -35.19,4.75 -35.19,1.74 z"
   id="path89"
   style="fill:#ffffff" />
		</g>
		<g
   class="st4"
   id="g95"
   style="fill:#ffffff;enable-background:new">
			<path
   class="st2"
   d="m 1219.43,870.69 c 1.11,-3.17 1.9,-3.33 5.23,-3.33 4.6,0 4.6,2.06 4.6,6.66 0,0.48 -0.16,2.54 -0.16,2.85 l -4.75,108.42 c -0.32,6.97 -9.19,7.61 -9.19,3.01 z"
   id="path93"
   style="fill:#ffffff" />
		</g>
		<g
   class="st4"
   id="g99"
   style="fill:#ffffff;enable-background:new">
			<path
   class="st2"
   d="m 1244.8,960.89 c 6.34,1.9 0.32,15.85 8.24,20.45 h 0.95 c 8.88,0 11.41,-12.21 11.41,-18.7 0,-8.72 -0.63,-18.07 -4.28,-26.31 -7.45,-17.12 -23.46,-31.38 -23.46,-51.04 0,-8.88 5.39,-23.62 16.33,-23.62 6.97,0 18.54,5.55 18.54,13.79 0,3.01 -0.95,4.75 -4.12,4.75 -6.18,0 -4.28,-9.51 -13,-9.51 -8.08,0 -8.72,11.25 -8.72,16.8 0,16.01 13.47,27.26 20.61,40.58 6.5,12.21 9.83,29.96 6.02,42 -2.54,8.24 -9.67,19.5 -19.34,19.5 -11.73,0 -15.38,-14.58 -15.38,-24.09 0.01,-2.7 3.66,-5.4 6.2,-4.6 z"
   id="path97"
   style="fill:#ffffff" />
		</g>
		<g
   class="st4"
   id="g103"
   style="fill:#ffffff;enable-background:new">
			<path
   class="st2"
   d="m 1295.52,873.23 c -9.83,0.63 -14.27,0.48 -14.58,-2.22 0.32,-5.39 0.32,-7.29 16.8,-6.34 h 13.31 c 3.49,0.16 9.35,0.63 9.35,5.23 0,1.43 -1.74,3.01 -3.17,3.01 h -13.31 l 3.01,100.65 c 0,1.43 -3.17,2.22 -4.12,2.22 -0.95,0 -4.12,-0.79 -4.12,-2.22 z"
   id="path101"
   style="fill:#ffffff" />
		</g>
		<g
   class="st4"
   id="g117"
   style="fill:#ffffff;enable-background:new">
			<path
   class="st2"
   d="m 1327.54,875.61 c 0,-2.85 2.7,-5.55 5.55,-5.55 h 25.04 c 0.95,0 4.12,2.38 4.28,3.17 0.16,0.32 0.16,0.48 0.16,0.79 0,3.17 -4.28,4.6 -6.82,4.6 h -19.02 l 0.79,52.62 17.12,-2.54 h 0.79 c 7.45,0 4.6,7.29 -1.74,8.24 l -15.85,2.38 -0.48,41.37 c 1.43,0.16 6.82,0.16 8.24,0.16 10.62,0 18.39,-3.65 18.86,3.65 0.32,5.39 -35.19,4.75 -35.19,1.74 z"
   id="path105"
   style="fill:#ffffff" />
			<path
   class="st2"
   d="m 1380.49,977.21 c 0,-35.66 1.27,-71.65 2.22,-107.31 0.32,-7.29 3.01,-7.29 9.35,-7.29 h 1.58 c 14.58,0 23.93,9.51 23.93,23.46 v 1.74 c 0,11.57 -3.01,25.04 -13.47,32.18 0.79,0.79 4.44,5.07 5.07,6.18 7.13,9.35 5.39,32.02 6.18,42.96 0,0.95 0.95,8.24 0.95,9.19 v 1.27 c 0,2.69 -2.54,3.01 -4.6,3.01 h -0.16 c -1.74,0 -3.8,0 -4.44,-2.22 -0.16,-5.23 -1.58,-29.48 -1.9,-34.87 -0.63,-7.77 -2.22,-18.39 -11.89,-18.39 h -2.54 c -0.32,1.43 -0.95,7.77 -0.95,9.19 -0.16,1.43 -0.95,36.62 -1.11,50.09 0,3.01 0.48,6.34 -3.49,6.34 -1.74,0 -3.65,-0.63 -4.75,-2.22 v -13.31 z m 12.36,-61.34 c 11.25,0 15.53,-20.76 15.53,-28.06 0,-7.45 -3.49,-16.96 -12.52,-16.96 -2.38,0 -3.96,1.43 -3.96,4.12 0.16,13.79 -1.11,25.36 -1.11,39.47 0,1.27 1.11,1.43 2.06,1.43 z"
   id="path107"
   style="fill:#ffffff" />
			<path
   class="st2"
   d="m 1435.33,874.66 c -0.32,-6.34 8.4,-10.14 11.73,-0.95 l 32.34,87.66 c 0.16,-6.97 1.43,-45.97 2.38,-61.5 0.48,-9.51 -0.16,-19.18 1.9,-28.06 0,-1.74 1.74,-1.74 4.12,-1.74 3.8,0.16 4.12,0.32 3.96,3.8 -0.48,16.49 -2.85,32.97 -3.49,49.46 -0.32,9.19 -1.9,53.1 -1.9,62.29 -1.11,3.33 -6.02,1.43 -7.29,-1.27 -1.58,-3.33 -2.85,-6.5 -36.46,-96.37 l -1.11,97.32 c 0,4.76 -8.08,4.28 -8.08,0.95 z"
   id="path109"
   style="fill:#ffffff" />
			<path
   class="st2"
   d="m 1513.16,977.69 c 4.28,0 7.13,3.33 7.13,7.77 0,3.49 -3.33,3.96 -6.34,3.96 -3.96,0 -6.18,-2.54 -6.18,-6.97 0,-2.07 3.49,-4.76 5.39,-4.76 z"
   id="path111"
   style="fill:#ffffff" />
			<path
   class="st2"
   d="m 1541.53,977.69 c 4.28,0 7.13,3.33 7.13,7.77 0,3.49 -3.33,3.96 -6.34,3.96 -3.96,0 -6.18,-2.54 -6.18,-6.97 0,-2.07 3.49,-4.76 5.39,-4.76 z"
   id="path113"
   style="fill:#ffffff" />
			<path
   class="st2"
   d="m 1569.9,977.69 c 4.28,0 7.13,3.33 7.13,7.77 0,3.49 -3.33,3.96 -6.34,3.96 -3.96,0 -6.18,-2.54 -6.18,-6.97 0,-2.07 3.49,-4.76 5.39,-4.76 z"
   id="path115"
   style="fill:#ffffff" />
		</g>
	</g>
</svg>