<?xml version="1.0" encoding="UTF-8" standalone="no"?>
<svg xmlns:dc="http://purl.org/dc/elements/1.1/" xmlns:cc="http://creativecommons.org/ns#"
    xmlns:rdf="http://www.w3.org/1999/02/22-rdf-syntax-ns#" xmlns:svg="http://www.w3.org/2000/svg"
    xmlns="http://www.w3.org/2000/svg" height="697.35364" width="1613.8771" xml:space="preserve"
    viewBox="0 0 1613.877 697.35366" y="0px" x="0px" id="Ebene_1" version="1.1">
    <metadata id="metadata950">
        <rdf:RDF>
            <cc:Work rdf:about="">
                <dc:format>image/svg+xml</dc:format>
                <dc:type rdf:resource="http://purl.org/dc/dcmitype/StillImage" />
                <dc:title></dc:title>
            </cc:Work>
        </rdf:RDF>
    </metadata>
    <defs id="defs948" />
    <style id="style920" type="text/css">
	.st0{display:none;}
	.st1{display:inline;fill:#07272B;}
	.st2{fill:#07272B;}
	.st3{fill:none;}
	.star {
		transform: scale(0);
		animation: blinking-star;
		animation-duration: 0.6s;
		animation-fill-mode: forwards;
		animation-timing-function: ease-out;
	}
	.delay-1 { animation-delay: 0.5s; }
	.delay-2 { animation-delay: 1s; }
	@keyframes blinking-star {
		0% { transform: rotate(90deg) scale(0); }
		100% { transform: rotate(0) scale(1); }
	}
</style>
    <defs>
		<polygon style="fill:#ffffff" id="star" points="250,0 64,64 0,250 -64,64 -250,0 -64,-64 0,-250 64,-64"
            class="st2" />
	</defs>

    <g transform="translate(-100.20297,-272.70637)" id="Tales">
		<g transform="translate(1610, 475) scale(0.4) ">
			<use href="#star" class="star delay-2" />
		</g>
			<g transform="translate(255, 600) scale(0.2) ">
			<use href="#star" class="star delay-1" />
		</g>

		<g style="fill:#ffffff" id="Tales_1_">
			<g style="fill:#ffffff" id="g939">
				<path style="fill:#ffffff" id="path929"
					d="m 500.09,373.08 c 6.93,4.35 12.78,9.75 17.56,16.26 4.76,6.5 7.15,13.66 7.15,21.46 -2.6,16.48 -5.43,30.79 -8.45,42.92 -3.05,12.15 -6.08,23.63 -9.1,34.47 -3.05,10.85 -6.5,22.11 -10.4,33.82 -3.9,11.71 -8.03,25.36 -12.36,40.97 -4.35,17.35 -9.33,37.29 -14.96,59.83 -5.65,22.56 -11.06,45.97 -16.26,70.23 -5.2,24.29 -9.98,48.12 -14.31,71.53 -4.35,23.41 -7.38,43.79 -9.1,61.13 -1.75,25.16 -3.25,48.12 -4.55,68.93 -1.3,20.81 0.2,41.62 4.55,62.43 v 6.5 c 0,4.33 -2.17,6.5 -6.5,6.5 -15.61,-0.88 -32.52,-3.7 -50.72,-8.46 -18.21,-4.78 -31.21,-12.8 -39.02,-24.06 -3.48,-4.35 -5.43,-10.2 -5.85,-17.56 -0.45,-7.36 -0.45,-15.16 0,-23.41 0.43,-8.23 1.3,-16.68 2.6,-25.36 1.3,-8.66 2.38,-16.03 3.25,-22.11 0.85,-16.46 3.03,-35.32 6.5,-56.58 3.45,-21.24 7.15,-42.92 11.06,-65.03 3.91,-22.11 8.23,-43.57 13.01,-64.38 4.76,-20.81 8.88,-39.02 12.36,-54.63 6.06,-23.41 11.71,-44.42 16.91,-63.08 5.2,-18.64 10.4,-37.07 15.61,-55.28 5.2,-18.21 9.96,-36.84 14.31,-55.93 4.33,-19.06 8.66,-40.32 13.01,-63.73 -8.68,-0.85 -17.35,-1.3 -26.01,-1.3 -8.68,0 -17.78,0 -27.31,0 -39.02,-0.85 -72.83,2.83 -101.45,11.06 -28.61,8.25 -52.02,18.21 -70.23,29.91 -18.21,11.71 -31.21,24.29 -39.02,37.72 -7.8,13.45 -10.4,25.36 -7.8,35.77 3.45,10.4 8.66,19.08 15.61,26.01 6.93,6.95 13.86,12.36 20.81,16.26 6.93,3.9 13.43,6.5 19.51,7.8 6.06,1.3 9.96,1.95 11.71,1.95 l -9.1,18.21 c -14.75,0 -28.19,-1.3 -40.32,-3.9 -10.4,-1.73 -20.81,-4.76 -31.21,-9.1 -10.41,-4.33 -18.21,-10.83 -23.41,-19.51 -9.55,-17.33 -16.91,-40.1 -22.11,-68.28 -5.2,-28.17 -6.95,-53.98 -5.2,-77.39 2.6,-30.34 19.29,-53.53 50.07,-69.58 30.77,-16.03 70.66,-26.22 119.66,-30.56 48.98,-4.33 104.25,-3.68 165.83,1.95 61.56,5.65 123.98,15.4 187.29,29.26 62.43,13.88 113.58,22.33 153.47,25.36 39.87,3.05 71.09,3.05 93.64,0 22.54,-3.03 38.37,-8.45 47.47,-16.26 9.1,-7.8 14.08,-15.61 14.96,-23.41 0.85,-2.6 2.15,-5.2 3.9,-7.8 3.45,-5.2 8.23,-5.63 14.31,-1.3 6.93,5.2 12.78,13.23 17.56,24.06 4.76,10.85 7.58,22.33 8.45,34.47 0,6.08 -1.1,13.23 -3.25,21.46 -2.17,8.25 -8.03,15.83 -17.56,22.76 -9.55,6.95 -23.86,12.8 -42.92,17.56 -19.08,4.78 -45.52,6.3 -79.34,4.55 -24.28,-0.85 -46.82,-2.6 -67.63,-5.2 -20.81,-2.6 -41.84,-5.41 -63.08,-8.45 -21.26,-3.03 -43.79,-6.06 -67.63,-9.1 -23.86,-3.03 -51.37,-5.85 -82.59,-8.45 -8.68,-0.85 -17.35,-1.5 -26.01,-1.95 -8.74,-0.43 -17.84,-1.08 -27.37,-1.96 z"
					class="st2" />
				<path style="fill:#ffffff" id="path931"
					d="m 852.54,720.34 c 6.93,4.35 12.13,8.45 15.61,12.36 3.45,3.9 6.06,8.03 7.8,12.36 2.6,4.35 4.33,8.68 5.2,13.01 -4.35,32.09 -12.36,58.75 -24.06,79.99 -11.71,21.26 -23.63,37.94 -35.77,50.07 -14.75,14.75 -29.91,26.01 -45.52,33.82 -29.49,-6.93 -53.98,-16.26 -73.48,-27.96 -19.51,-11.71 -30.56,-25.79 -33.17,-42.27 -1.75,-7.8 -2.6,-16.46 -2.6,-26.01 0,-9.53 0.43,-19.06 1.3,-28.61 -5.2,13.88 -10.2,27.76 -14.96,41.62 -4.78,13.88 -9.33,26.24 -13.66,37.07 -4.35,10.85 -8.25,19.96 -11.71,27.31 -3.48,7.38 -6.08,11.93 -7.8,13.66 -19.08,3.48 -36.42,4.33 -52.02,2.6 -13.88,-1.73 -27.76,-5.63 -41.62,-11.71 -13.88,-6.06 -24.26,-17.76 -31.21,-35.12 -1.73,-10.4 -2.6,-21.66 -2.6,-33.82 0,-10.4 0.22,-22.96 0.65,-37.72 0.45,-14.73 1.95,-30.77 4.55,-48.12 3.48,-23.41 8.88,-47.68 16.26,-72.83 7.36,-25.14 16.26,-48.12 26.66,-68.93 10.4,-20.81 22.31,-37.92 35.77,-51.37 13.43,-13.43 28.82,-20.59 46.17,-21.46 11.26,-0.85 22.54,0 33.82,2.6 9.53,1.75 20.36,4.78 32.52,9.1 12.13,4.35 23.84,11.28 35.12,20.81 0,0.87 0.43,1.75 1.3,2.6 v 3.9 c -1.75,1.75 -3.05,2.6 -3.9,2.6 h -2.6 c -7.8,0 -17.13,1.1 -27.96,3.25 -10.85,2.17 -21.03,8.03 -30.56,17.56 -13.01,13.01 -24.71,30.79 -35.12,53.33 -10.4,22.56 -18.86,46.62 -25.36,72.18 -6.5,25.59 -10.63,51.37 -12.36,77.39 -1.75,26.01 -0.87,49.87 2.6,71.53 12.13,-16.46 24.26,-35.97 36.42,-58.53 10.4,-19.94 22.11,-44.65 35.12,-74.13 13.01,-29.47 25.57,-64.58 37.72,-105.35 1.73,-7.8 3.45,-14.51 5.2,-20.16 1.73,-5.63 3.03,-10.61 3.9,-14.96 0.85,-0.85 1.73,-2.15 2.6,-3.9 2.6,-2.6 5.63,-3.45 9.1,-2.6 24.26,6.95 41.4,14.1 51.37,21.46 9.96,7.38 16.68,13.66 20.16,18.86 0,1.75 0.43,3.48 1.3,5.2 0,1.75 0.2,3.48 0.65,5.2 0.43,1.75 0.2,3.9 -0.65,6.5 -12.15,40.77 -20.81,75.66 -26.01,104.7 -5.2,29.06 -8.68,53.55 -10.4,73.48 -2.6,22.56 -3.05,41.62 -1.3,57.23 22.54,-9.53 40.32,-23.84 53.33,-42.92 13.01,-19.06 22.96,-37.72 29.91,-55.93 7.79,-21.67 12.55,-44.65 14.29,-68.94 z"
					class="st2" />
				<path style="fill:#ffffff" id="path933"
					d="m 1019.01,720.34 c 12.13,6.95 20.36,15.18 24.71,24.71 2.6,4.35 4.33,8.68 5.2,13.01 -5.2,32.09 -13.66,58.75 -25.36,79.99 -11.71,21.26 -23.63,37.94 -35.77,50.07 -14.75,14.75 -29.91,26.01 -45.52,33.82 -28.61,-6.93 -52.67,-16.26 -72.18,-27.96 -19.51,-11.7 -30.56,-25.79 -33.17,-42.27 -1.73,-12.13 -1.95,-27.52 -0.65,-46.17 1.3,-18.64 3.48,-38.37 6.5,-59.18 3.05,-20.81 6.93,-42.05 11.71,-63.73 4.76,-21.66 9.31,-41.62 13.66,-59.83 9.53,-39.02 18.64,-75.44 27.31,-109.25 8.66,-33.82 16.03,-60.68 22.11,-80.64 2.6,-8.66 2.8,-14.08 0.65,-16.26 -2.17,-2.15 -2.4,-5.41 -0.65,-9.75 0.85,-3.45 3.9,-5.2 9.1,-5.2 1.73,0 2.8,0.22 3.25,0.65 0.43,0.45 1.5,0.65 3.25,0.65 0.85,0 1.73,0.45 2.6,1.3 7.8,2.6 18.64,6.95 32.52,13.01 13.86,6.08 26.44,13.88 37.72,23.41 1.73,0.87 3.03,2.17 3.9,3.9 1.73,4.35 2.15,9.1 1.3,14.31 -4.35,13.01 -11.5,36.86 -21.46,71.53 -9.98,34.69 -20.61,73.28 -31.87,115.75 -8.68,34.69 -15.4,66.55 -20.16,95.59 -4.78,29.06 -8.03,54.42 -9.75,76.09 -3.48,25.16 -5.2,48.57 -5.2,70.23 22.54,-9.53 40.1,-23.84 52.67,-42.92 12.56,-19.06 22.31,-37.72 29.26,-55.93 7.82,-21.66 12.58,-44.64 14.32,-68.93 z"
					class="st2" />
				<path style="fill:#ffffff" id="path935"
					d="m 1329.85,765.87 c -12.15,44.22 -29.71,77.18 -52.67,98.85 -22.98,21.68 -46.62,36.86 -70.88,45.52 -20.81,6.95 -40.54,10.4 -59.18,10.4 -18.66,0 -32.74,-0.85 -42.27,-2.6 -23.41,-4.33 -42.07,-12.36 -55.93,-24.06 -13.88,-11.71 -24.06,-25.36 -30.56,-40.97 -6.5,-15.61 -10.4,-31.86 -11.71,-48.77 -1.3,-16.91 -1.08,-33.17 0.65,-48.77 1.75,-18.21 4.78,-34.89 9.1,-50.07 4.33,-15.16 8.66,-27.52 13.01,-37.07 7.8,-18.21 16.46,-35.32 26.01,-51.37 9.53,-16.03 19.94,-30.12 31.21,-42.27 11.26,-12.13 22.76,-21.66 34.47,-28.61 11.71,-6.93 24.06,-9.96 37.07,-9.1 11.26,1.75 22.54,4.35 33.82,7.8 9.53,3.48 19.94,8.25 31.21,14.31 11.26,6.08 21.66,14.75 31.21,26.01 0.85,0.87 3.25,3.9 7.15,9.1 3.9,5.2 6.71,12.58 8.45,22.11 1.73,9.55 1.08,20.81 -1.95,33.82 -3.05,13.01 -10.85,27.31 -23.41,42.92 -12.58,15.61 -31.21,32.74 -55.93,51.37 -24.71,18.66 -57.88,37.94 -99.5,57.88 -1.75,13.01 -2.4,24.28 -1.95,33.82 0.43,9.55 1.5,17.78 3.25,24.71 1.73,7.8 3.45,13.88 5.2,18.21 3.45,5.2 9.53,8.9 18.21,11.06 8.66,2.17 18.21,2.82 28.61,1.95 10.4,-0.85 20.59,-2.38 30.56,-4.55 9.96,-2.15 18.41,-4.55 25.36,-7.15 17.33,-6.93 31.86,-16.46 43.57,-28.61 11.71,-12.13 21.46,-24.71 29.26,-37.72 7.8,-13.01 13.66,-25.36 17.56,-37.07 3.9,-11.71 6.71,-21.01 8.45,-27.96 0.85,-4.33 1.73,-8.23 2.6,-11.71 0.85,-3.45 1.3,-6.5 1.3,-9.1 v -7.8 c 12.13,6.95 20.36,15.18 24.71,24.71 2.6,4.35 4.33,8.68 5.2,13.01 0,3.48 -0.45,5.65 -1.3,6.5 v 1.27 z m -214.6,-57.23 c -3.48,8.68 -6.5,16.91 -9.1,24.71 -2.6,7.8 -5.2,15.18 -7.8,22.11 13.86,-8.66 30.56,-19.71 50.07,-33.17 19.51,-13.43 37.07,-27.52 52.67,-42.27 15.61,-14.73 26.44,-29.91 32.52,-45.52 6.06,-15.61 3.46,-29.47 -7.8,-41.62 v -1.3 c -6.95,0.87 -13.45,2.17 -19.51,3.9 -6.08,1.75 -12.58,5.2 -19.51,10.4 -13.88,9.55 -26.89,23.41 -39.02,41.62 -12.16,18.22 -22.99,38.6 -32.52,61.14 z"
					class="st2" />
				<path style="fill:#ffffff" id="path937"
					d="m 1554.84,773.67 c -6.08,20.81 -14.1,40.54 -24.06,59.18 -9.98,18.66 -23.21,35.12 -39.67,49.42 -16.48,14.31 -36.21,25.36 -59.18,33.17 -22.98,7.8 -50.07,11.26 -81.29,10.41 -24.28,-0.88 -43.14,-5.85 -56.58,-14.96 -13.43,-9.1 -22.54,-20.81 -27.31,-35.12 -4.76,-14.31 -6.06,-30.99 -3.9,-50.07 2.17,-19.06 6.73,-39.02 13.66,-59.83 0.87,-0.85 1.3,-2.15 1.3,-3.9 l 14.31,-33.82 c 1.75,-4.33 2.4,-7.36 1.95,-9.1 -0.43,-1.73 0.22,-4.76 1.95,-9.1 0.85,-1.73 3.45,-2.6 7.8,-2.6 l 1.3,1.3 h 5.2 l 2.6,2.6 h 1.3 c 6.93,4.35 18.21,10.63 33.82,18.86 15.61,8.25 27.31,18.01 35.12,29.26 v 1.3 c 0.85,0 1.73,1.3 2.6,3.9 0.85,2.6 0.43,5.65 -1.3,9.1 0,1.75 -0.45,3.05 -1.3,3.9 l -1.3,2.6 c -3.47,5.2 -5.2,8.25 -5.2,9.1 l -5.2,6.5 c -5.2,11.28 -9.75,22.76 -13.66,34.47 -3.9,11.71 -6.5,22.33 -7.8,31.87 -1.3,9.55 -0.87,17.35 1.3,23.41 2.15,6.08 6.28,9.1 12.36,9.1 18.21,0 34.02,-4.55 47.47,-13.66 13.43,-9.1 24.92,-20.59 34.47,-34.47 9.53,-13.86 17.33,-28.61 23.41,-44.22 6.06,-15.61 10.83,-29.91 14.31,-42.92 5.2,-21.66 3.45,-37.49 -5.2,-47.47 -8.68,-9.96 -21.03,-16.91 -37.07,-20.81 -16.05,-3.9 -34.91,-5.41 -56.58,-4.55 -21.68,0.87 -43.37,1.3 -65.03,1.3 -3.48,0 -5.2,-1.73 -5.2,-5.2 l 2.6,-1.3 c 2.6,-13.86 3.68,-26.87 3.25,-39.02 -0.45,-12.13 -1.52,-22.11 -3.25,-29.91 -0.87,-1.73 -0.22,-3.45 1.95,-5.2 2.15,-1.73 3.25,-3.03 3.25,-3.9 24.26,-22.54 52.45,-40.1 84.54,-52.67 32.07,-12.56 65.46,-21.46 100.15,-26.66 17.33,0.87 32.07,11.71 44.22,32.52 1.73,6.08 2.6,12.58 2.6,19.51 0,6.08 -1.3,12.58 -3.9,19.51 -2.6,6.95 -7.8,14.31 -15.61,22.11 l -5.2,2.6 c -4.35,1.75 -8.25,2.17 -11.71,1.3 -0.87,0 -1.3,-1.73 -1.3,-5.2 0,-1.73 0.43,-3.45 1.3,-5.2 0,-1.73 -2.4,-4.76 -7.15,-9.1 -4.78,-4.33 -12.15,-7.8 -22.11,-10.4 -9.98,-2.6 -22.98,-2.6 -39.02,0 -16.05,2.6 -35.34,10.4 -57.88,23.41 15.61,0 34.24,3.05 55.93,9.1 21.66,6.08 41.62,15.4 59.83,27.96 18.21,12.58 32.52,28.84 42.92,48.77 10.4,19.94 12.12,44.21 5.19,72.82 z"
					class="st2" />
			</g>
		</g>
	</g>
</svg>